<svg width="220" height="48" viewBox="0 0 220 48" fill="none" xmlns="http://www.w3.org/2000/svg">
<g style="mix-blend-mode:darken">
<path d="M4.64205 11.8182H12.9773V39.0909C12.9773 41.25 12.5341 42.9659 11.6477 44.2386C10.7727 45.5114 9.53409 46.4261 7.93182 46.983C6.32955 47.5398 4.4375 47.8182 2.25568 47.8182C1.96023 47.8182 1.68182 47.8125 1.42045 47.8011C1.15909 47.7898 0.875 47.7784 0.568182 47.767V41.4432C0.772727 41.4659 0.954545 41.483 1.11364 41.4943C1.27273 41.5057 1.43182 41.5114 1.59091 41.5114C2.73864 41.5114 3.53409 41.2955 3.97727 40.8636C4.42045 40.4432 4.64205 39.7955 4.64205 38.9205V11.8182ZM8.80114 8.76705C7.63068 8.76705 6.625 8.38068 5.78409 7.60795C4.94318 6.82386 4.52273 5.88068 4.52273 4.77841C4.52273 3.6875 4.94318 2.75568 5.78409 1.98295C6.625 1.19886 7.63068 0.806816 8.80114 0.806816C9.98295 0.806816 10.9886 1.19886 11.8182 1.98295C12.6591 2.75568 13.0795 3.6875 13.0795 4.77841C13.0795 5.88068 12.6591 6.82386 11.8182 7.60795C10.9886 8.38068 9.98295 8.76705 8.80114 8.76705ZM30.5213 38.4943C27.7827 38.4943 25.419 37.9545 23.4304 36.875C21.4531 35.7841 19.9304 34.233 18.8622 32.2216C17.8054 30.1989 17.277 27.7955 17.277 25.0114C17.277 22.3068 17.8111 19.9432 18.8793 17.9205C19.9474 15.8864 21.4531 14.3068 23.3963 13.1818C25.3395 12.0455 27.6293 11.4773 30.2656 11.4773C32.1293 11.4773 33.8338 11.767 35.3793 12.3466C36.9247 12.9261 38.2599 13.7841 39.3849 14.9205C40.5099 16.0568 41.3849 17.4602 42.0099 19.1307C42.6349 20.7898 42.9474 22.6932 42.9474 24.8409V26.9205H20.1918V22.0795H35.1918C35.1804 21.1932 34.9702 20.4034 34.5611 19.7102C34.152 19.017 33.5895 18.4773 32.8736 18.0909C32.169 17.6932 31.3565 17.4943 30.4361 17.4943C29.5043 17.4943 28.669 17.7045 27.9304 18.125C27.1918 18.5341 26.6065 19.0966 26.1747 19.8125C25.7429 20.517 25.5156 21.3182 25.4929 22.2159V27.142C25.4929 28.2102 25.7031 29.1477 26.1236 29.9545C26.544 30.75 27.1406 31.3693 27.9134 31.8125C28.6861 32.2557 29.6065 32.4773 30.6747 32.4773C31.4134 32.4773 32.0838 32.375 32.6861 32.1705C33.2884 31.9659 33.8054 31.6648 34.2372 31.267C34.669 30.8693 34.9929 30.3807 35.2088 29.8011L42.8622 30.0227C42.544 31.7386 41.8452 33.233 40.7656 34.5057C39.6974 35.767 38.294 36.75 36.5554 37.4545C34.8168 38.1477 32.8054 38.4943 30.5213 38.4943ZM51.8153 38L44.9972 11.8182H53.3665L56.8949 28.5909H57.1165L60.9006 11.8182H69.0653L72.9517 28.4716H73.1733L76.5994 11.8182H84.9688L78.1335 38H69.2188L65.1278 22.7443H64.8381L60.7472 38H51.8153ZM99.9901 38.4943C97.2514 38.4943 94.8878 37.9545 92.8991 36.875C90.9219 35.7841 89.3991 34.233 88.331 32.2216C87.2741 30.1989 86.7457 27.7955 86.7457 25.0114C86.7457 22.3068 87.2798 19.9432 88.348 17.9205C89.4162 15.8864 90.9219 14.3068 92.8651 13.1818C94.8082 12.0455 97.098 11.4773 99.7344 11.4773C101.598 11.4773 103.303 11.767 104.848 12.3466C106.393 12.9261 107.729 13.7841 108.854 14.9205C109.979 16.0568 110.854 17.4602 111.479 19.1307C112.104 20.7898 112.416 22.6932 112.416 24.8409V26.9205H89.6605V22.0795H104.661C104.649 21.1932 104.439 20.4034 104.03 19.7102C103.621 19.017 103.058 18.4773 102.342 18.0909C101.638 17.6932 100.825 17.4943 99.9048 17.4943C98.973 17.4943 98.1378 17.7045 97.3991 18.125C96.6605 18.5341 96.0753 19.0966 95.6435 19.8125C95.2116 20.517 94.9844 21.3182 94.9616 22.2159V27.142C94.9616 28.2102 95.1719 29.1477 95.5923 29.9545C96.0128 30.75 96.6094 31.3693 97.3821 31.8125C98.1548 32.2557 99.0753 32.4773 100.143 32.4773C100.882 32.4773 101.553 32.375 102.155 32.1705C102.757 31.9659 103.274 31.6648 103.706 31.267C104.138 30.8693 104.462 30.3807 104.678 29.8011L112.331 30.0227C112.013 31.7386 111.314 33.233 110.234 34.5057C109.166 35.767 107.763 36.75 106.024 37.4545C104.286 38.1477 102.274 38.4943 99.9901 38.4943ZM125.009 3.09091V38H116.673V3.09091H125.009ZM138.649 3.09091V38H130.314V3.09091H138.649ZM156.193 38.4943C153.455 38.4943 151.091 37.9545 149.102 36.875C147.125 35.7841 145.602 34.233 144.534 32.2216C143.477 30.1989 142.949 27.7955 142.949 25.0114C142.949 22.3068 143.483 19.9432 144.551 17.9205C145.619 15.8864 147.125 14.3068 149.068 13.1818C151.011 12.0455 153.301 11.4773 155.938 11.4773C157.801 11.4773 159.506 11.767 161.051 12.3466C162.597 12.9261 163.932 13.7841 165.057 14.9205C166.182 16.0568 167.057 17.4602 167.682 19.1307C168.307 20.7898 168.619 22.6932 168.619 24.8409V26.9205H145.864V22.0795H160.864C160.852 21.1932 160.642 20.4034 160.233 19.7102C159.824 19.017 159.261 18.4773 158.545 18.0909C157.841 17.6932 157.028 17.4943 156.108 17.4943C155.176 17.4943 154.341 17.7045 153.602 18.125C152.864 18.5341 152.278 19.0966 151.847 19.8125C151.415 20.517 151.188 21.3182 151.165 22.2159V27.142C151.165 28.2102 151.375 29.1477 151.795 29.9545C152.216 30.75 152.812 31.3693 153.585 31.8125C154.358 32.2557 155.278 32.4773 156.347 32.4773C157.085 32.4773 157.756 32.375 158.358 32.1705C158.96 31.9659 159.477 31.6648 159.909 31.267C160.341 30.8693 160.665 30.3807 160.881 29.8011L168.534 30.0227C168.216 31.7386 167.517 33.233 166.438 34.5057C165.369 35.767 163.966 36.75 162.227 37.4545C160.489 38.1477 158.477 38.4943 156.193 38.4943ZM172.876 38V11.8182H180.973V16.5909H181.246C181.723 14.8636 182.501 13.5795 183.581 12.7386C184.661 11.8864 185.916 11.4602 187.348 11.4602C187.734 11.4602 188.132 11.4886 188.541 11.5455C188.95 11.5909 189.331 11.6648 189.683 11.767V19.0114C189.286 18.875 188.763 18.767 188.115 18.6875C187.479 18.608 186.911 18.5682 186.411 18.5682C185.422 18.5682 184.53 18.7898 183.734 19.233C182.95 19.6648 182.331 20.2727 181.876 21.0568C181.433 21.8295 181.212 22.7386 181.212 23.7841V38H172.876ZM198.973 47.8182C197.973 47.8182 197.03 47.7386 196.143 47.5795C195.257 47.4318 194.496 47.233 193.859 46.983L195.7 40.9318C196.518 41.2045 197.257 41.3636 197.916 41.4091C198.587 41.4545 199.161 41.3466 199.638 41.0852C200.126 40.8352 200.501 40.3864 200.763 39.7386L201.087 38.9545L191.78 11.8182H200.507L205.331 30.5H205.604L210.496 11.8182H219.274L209.405 40.5057C208.928 41.9375 208.251 43.1989 207.376 44.2898C206.513 45.392 205.393 46.2557 204.018 46.8807C202.655 47.5057 200.973 47.8182 198.973 47.8182Z" fill="black"/>
</g>
</svg>
